<?xml version="1.0" encoding="UTF-8" standalone="no"?>
<!-- Created with Inkscape (http://www.inkscape.org/) -->

<svg
   xmlns:dc="http://purl.org/dc/elements/1.1/"
   xmlns:cc="http://creativecommons.org/ns#"
   xmlns:rdf="http://www.w3.org/1999/02/22-rdf-syntax-ns#"
   xmlns:svg="http://www.w3.org/2000/svg"
   xmlns="http://www.w3.org/2000/svg"
   xmlns:sodipodi="http://sodipodi.sourceforge.net/DTD/sodipodi-0.dtd"
   xmlns:inkscape="http://www.inkscape.org/namespaces/inkscape"
   id="svg2"
   version="1.1"
   inkscape:version="0.91 r13725"
   width="3320"
   height="3320"
   viewBox="0 0 3320 3320"
   sodipodi:docname="T_SVG.svg">
  <metadata
     id="metadata8">
    <rdf:RDF>
      <cc:Work
         rdf:about="">
        <dc:format>image/svg+xml</dc:format>
        <dc:type
           rdf:resource="http://purl.org/dc/dcmitype/StillImage" />
        <dc:title></dc:title>
      </cc:Work>
    </rdf:RDF>
  </metadata>
  <defs
     id="defs6" />
  <sodipodi:namedview
     pagecolor="#ffffff"
     bordercolor="#666666"
     borderopacity="1"
     objecttolerance="10"
     gridtolerance="10"
     guidetolerance="10"
     inkscape:pageopacity="0"
     inkscape:pageshadow="2"
     inkscape:window-width="1920"
     inkscape:window-height="1018"
     id="namedview4"
     showgrid="false"
     inkscape:zoom="0.20105687"
     inkscape:cx="3548.4359"
     inkscape:cy="1764.876"
     inkscape:window-x="-8"
     inkscape:window-y="-8"
     inkscape:window-maximized="1"
     inkscape:current-layer="svg2" />
  <g
     id="g3338">
    <path
       style="fill:#f2cdd2"
       d="m 1520,2848.0156 c -14.7812,-0.9182 -40.0937,-2.5274 -56.25,-3.5757 -16.1562,-1.0484 -51.3125,-3.3276 -78.125,-5.0651 -46.6566,-3.0233 -67.2406,-4.8717 -146.875,-13.1892 -77.3929,-8.0832 -262.70495,-28.7657 -274.6875,-30.6575 l -4.0625,-0.6413 0,-124.9434 c 0,-68.7189 0.14062,-124.9599 0.3125,-124.9801 1.2633,-0.1488 344.6106,-4.914 355.625,-4.9357 L 1330,2540 l 0,-829.9809 0,-829.98078 -7.1875,0.65688 c -3.9531,0.36129 -30.5312,2.31292 -59.0625,4.33699 -49.9791,3.5456 -89.3393,6.37237 -277.5,19.92958 -47.78125,3.44269 -106.28125,7.65472 -130,9.36004 -206.06202,14.81542 -236.79035,17.06578 -237.0962,17.36355 -0.12163,0.1185 -4.42177,83.91594 -9.55581,186.21664 -5.13404,102.3007 -9.63537,186.302 -10.00294,186.6696 -0.81639,0.8164 -3.80724,1.1634 -197.10663,22.8644 -85.60011,9.6101 -172.88366,19.4215 -193.96343,21.8031 -128.34271,14.5002 -189.759929,21.183 -190.17997,20.6934 C 17.49839,1368.9459 4.7639053,791.39327 5.5603655,790.10458 6.3519031,788.82385 43.529575,768.1021 83.125,746.87232 164.73349,703.11651 222.8353,678.85356 336.25,641.16894 527.33061,577.67804 718.16759,535.76706 970,501.98691 c 14.6088,-1.95958 36.534,-4.63435 56.875,-6.93847 6.1875,-0.70089 18.2813,-2.09858 26.875,-3.10598 36.697,-4.30181 69.5151,-7.29111 144.6341,-13.17432 43.8575,-3.43485 90.1472,-7.07206 102.8659,-8.0827 39.4988,-3.13858 90.1603,-5.80554 132.5,-6.97516 22.3438,-0.61726 43.1563,-1.68007 46.25,-2.36183 3.5464,-0.78151 62.6709,-1.24976 160,-1.26715 121.7689,-0.0217 160.4474,0.35853 183.125,1.80046 15.8125,1.00542 42.2925,1.83708 58.8445,1.84814 30.1791,0.0201 97.0964,3.38794 138.0305,6.94674 12.0313,1.04598 82.0625,8.10391 155.625,15.68427 73.5625,7.58036 149.7813,15.43214 169.375,17.44839 19.5938,2.01625 41.8125,4.55166 49.375,5.63424 130.4469,18.6736 273.9715,45.66149 378.75,71.21891 145.4605,35.48051 275.2413,78.44555 370.24,122.57112 43.3895,20.15382 165.953,82.18207 170.1651,86.11897 1.3727,1.28292 0.5403,50.91902 -4.8761,290.78476 -3.5923,159.0807 -6.7181,289.4626 -6.9466,289.7375 -0.647,0.7786 8.625,1.8066 -460.2089,-51.022 -66.2071,-7.4603 -120.6938,-13.8814 -121.0815,-14.2692 -0.3879,-0.3877 -4.9005,-84.4004 -10.0283,-186.6948 -5.1276,-102.2944 -9.433,-186.09977 -9.5675,-186.23419 -0.2291,-0.22916 -44.3936,-3.45771 -236.4462,-17.28492 -43.3125,-3.11836 -113.9063,-8.20506 -156.875,-11.30376 -134.176,-9.67614 -231.7641,-16.68434 -268.125,-19.25517 -19.25,-1.36103 -38.2344,-2.76662 -42.1875,-3.12352 l -7.1875,-0.64891 0,829.79317 0,829.7933 52.8125,0.822 c 29.0469,0.4521 98.0937,1.3756 153.4375,2.052 55.3438,0.6765 114.8281,1.5796 132.1875,2.0067 l 31.5625,0.7768 0,124.8022 0,124.8023 -4.0625,0.7135 c -4.8609,0.8538 -90.5443,10.6062 -170.3125,19.3847 -31.625,3.4804 -64.8125,7.1441 -73.75,8.1416 -49.9774,5.5782 -133.8378,13.3632 -168.125,15.6078 -21.6563,1.4176 -52.0313,3.4123 -67.5,4.4327 -101.7165,6.7095 -105.4015,6.8212 -220,6.6662 -75.3898,-0.1025 -117.7256,-0.6668 -136.25,-1.8177 z"
       id="path3352"
       inkscape:connector-curvature="0" />
    <path
       style="fill:#eeb9c0"
       d="m 1523.125,2847.9769 c -164.7482,-10.2308 -191.3067,-12.2648 -276.25,-21.1566 -74.901,-7.8407 -271.26286,-29.633 -282.1875,-31.3173 L 960,2794.7802 960,2669.8901 960,2545 l 6.5625,-0.017 c 3.60937,-0.013 85.0313,-1.1267 180.9375,-2.4825 95.9063,-1.3557 176.2031,-2.4729 178.4375,-2.4825 L 1330,2540 l 0,-830.0757 0,-830.07568 -8.4375,0.7574 c -4.6406,0.41658 -51.1875,3.80623 -103.4375,7.53255 -87.19,6.21815 -139.9474,10.009 -391.875,28.15793 -173.55296,12.5028 -206.6747,14.96152 -207.0858,15.37264 -0.23025,0.23025 -4.63439,84.13436 -9.78699,186.45366 -5.1526,102.3192 -9.58118,186.2478 -9.8413,186.5079 -0.26011,0.2602 -25.43398,3.2789 -55.94192,6.7084 -30.50795,3.4295 -82.75024,9.3028 -116.09399,13.0516 -33.34375,3.7488 -105.625,11.8735 -160.625,18.0548 -55,6.1814 -133.08828,14.9621 -173.529495,19.513 -40.441223,4.5507 -73.909973,7.8938 -74.375,7.4287 C 18.143479,1368.5603 4.7959441,805.9712 5.3461101,795.12875 L 5.625,789.6325 20,781.57246 c 23.438277,-13.14181 76.254039,-41.47505 103.75,-55.65712 32.40735,-16.71532 56.95512,-27.73951 92.5,-41.54094 170.74313,-66.29646 353.05727,-115.87635 562.5,-152.97053 117.75945,-20.85625 272.4215,-41.05766 374.375,-48.89953 28.7917,-2.21455 70.5859,-5.49468 150.625,-11.82145 38.7214,-3.06079 64.8958,-4.36966 113.75,-5.68821 27.9264,-0.75373 50.9738,-1.99074 59.4133,-3.18888 12.1228,-1.72104 33.5621,-1.88902 177.5,-1.39074 106.3416,0.36814 168.3112,1.04906 176.8367,1.94309 7.2188,0.757 37.875,1.91667 68.125,2.57706 75.5221,1.64874 110.5215,4.18344 225,16.29475 6.875,0.72735 34.4375,3.58161 61.25,6.34283 162.4318,16.72756 207.2014,21.67595 236.875,26.18175 254.545,38.6514 454.4066,86.47566 622.2605,148.89876 34.5544,12.85037 60.6343,23.4149 85.8645,34.7823 25.4636,11.47249 124.57,60.70286 158.125,78.54736 l 25.625,13.62736 0.2789,5.50734 c 0.5501,10.86261 -12.7973,573.44244 -13.6248,574.26984 -0.4652,0.4653 -21.2777,-1.4531 -46.25,-4.2629 -24.9722,-2.8097 -80.5603,-9.0611 -123.5291,-13.8918 -42.9687,-4.8308 -100.625,-11.3184 -128.125,-14.4169 -27.5,-3.0985 -97.25,-10.9388 -155,-17.4226 -135.3041,-15.1913 -127.1446,-14.2463 -127.6881,-14.7897 -0.2583,-0.2583 -4.6806,-84.1807 -9.8274,-186.4941 -5.1468,-102.3134 -9.5553,-186.2219 -9.7967,-186.46339 -0.2415,-0.24148 -82.2263,-6.33262 -182.1884,-13.53585 -99.9622,-7.20323 -220.8431,-15.91577 -268.6244,-19.3612 -47.7812,-3.44542 -122.0312,-8.77335 -165,-11.83983 -42.9687,-3.06649 -81.9219,-5.9096 -86.5625,-6.31803 l -8.4375,-0.74257 0,830.07567 0,830.0757 4.0625,0.017 c 2.2344,0.013 82.5313,1.1268 178.4375,2.4825 95.9063,1.3558 177.3281,2.4729 180.9375,2.4825 L 2360,2545 l 0,124.9234 0,124.9235 -5.3125,0.7101 c -18.137,2.4248 -157.0945,18.0827 -227.1875,25.5999 -106.3855,11.4093 -146.3181,15.0291 -214.375,19.4322 -150.1744,9.7159 -142.1047,9.4255 -257.203,9.2531 -73.0594,-0.1087 -113.7164,-0.6805 -132.797,-1.8653 z"
       id="path3350"
       inkscape:connector-curvature="0" />
    <path
       style="fill:#e79da7"
       d="m 1550,2849.2729 c -1.7187,-0.194 -14.9375,-0.9953 -29.375,-1.7807 -14.4375,-0.7853 -55.7812,-3.3393 -91.875,-5.6754 -36.0937,-2.3362 -70.9687,-4.5922 -77.5,-5.0134 -12.1845,-0.786 -67.147,-6.1206 -109.375,-10.616 -64.908,-6.9096 -156.6824,-17.0138 -215.4406,-23.7193 C 990.44201,2798.3606 960.77014,2795 960.49686,2795 960.22359,2795 960,2738.75 960,2670 l 0,-125 10.3125,-0.017 c 7.2033,-0.013 347.3705,-4.7175 358.75,-4.962 0.5156,-0.013 0.9375,-373.5201 0.9375,-830.0201 0,-663.1683 -0.3141,-829.99941 -1.5625,-829.99699 -0.8594,10e-4 -8.875,0.55324 -17.8125,1.22573 -8.9375,0.67247 -55.3437,4.03282 -103.125,7.46744 -94.53,6.79501 -200.8137,14.45002 -321.875,23.18281 -42.625,3.07477 -97.1875,7.00715 -121.25,8.73864 -125.87695,9.05778 -144.64119,10.48186 -145.17735,11.01802 -0.32076,0.32076 -4.79561,84.29565 -9.94411,186.61075 -5.1485,102.3152 -9.51213,186.1788 -9.69694,186.3637 -0.18481,0.1848 -65.55127,7.6715 -145.25881,16.6373 -318.80993,35.8603 -357.645217,40.2306 -395.361981,44.4901 -21.554055,2.4341 -39.523981,4.091 -39.933169,3.6817 C 18.593453,1369.011 15.62189,1251.8336 12.399168,1109.026 9.1764461,966.21757 6.1761872,836.0747 5.7319259,819.81876 L 4.924178,790.26254 14.649589,784.6794 C 28.446177,776.75909 78.65769,749.53861 99.375,738.74839 109,733.73539 121.65625,727.12695 127.5,724.06297 172.90018,700.25892 239.85577,673.68562 335.625,641.46242 457.42762,600.47986 603.71485,563.55364 752.20838,536.3073 885.38449,511.87148 1040.8289,491.25851 1162.5,481.8999 c 69.0395,-5.31034 119.985,-9.32929 135,-10.64979 29.0998,-2.5592 79.2894,-5.11877 122.4661,-6.24553 27.8685,-0.72728 49.4616,-1.89777 58.125,-3.15074 12.2059,-1.76536 32.1723,-1.93472 174.4089,-1.47926 131.9218,0.42242 165.3158,0.87227 186.875,2.51737 14.4375,1.10167 40.4077,2.02667 57.7118,2.05555 46.7528,0.078 113.2727,4.47736 191.0382,12.63446 13.0625,1.37018 31.625,3.30125 41.25,4.29128 9.625,0.99003 33.8125,3.47738 53.75,5.52745 208.3708,21.42566 224.3074,23.37996 317.3838,38.92063 235.4882,39.31878 418.9571,86.82753 581.2485,150.51263 23.4177,9.18941 52.0375,22.01699 92.6177,41.51194 32.9974,15.85212 109.5931,54.8263 132.56,67.45046 l 8.1565,4.48337 -0.8046,28.92264 c -0.4427,15.90745 -3.4558,146.05575 -6.6958,289.21844 -3.2401,143.1627 -6.2089,260.6136 -6.5972,261.002 -0.6903,0.6902 -15.4136,-0.903 -185.9939,-20.1273 -45.7187,-5.1525 -130.375,-14.6751 -188.125,-21.1615 -57.75,-6.4864 -127.7404,-14.351 -155.534,-17.4769 -27.7938,-3.126 -50.6962,-5.8456 -50.8944,-6.0437 -0.1981,-0.1982 -4.5671,-84.0673 -9.709,-186.3758 -5.1418,-102.3085 -9.618,-186.28463 -9.947,-186.61359 -0.3288,-0.32896 -15.407,-1.66157 -33.5068,-2.96136 -18.0998,-1.29978 -68.3463,-4.92018 -111.6588,-8.04533 -86.9309,-6.27237 -211.4996,-15.25035 -278.125,-20.04517 -156.6262,-11.27193 -220.9936,-15.91785 -250.625,-18.08969 -18.5625,-1.36055 -34.4531,-2.47569 -35.3125,-2.47809 C 1990.3141,880.00062 1990,1046.831 1990,1710 c 0,456.5 0.1406,830.0079 0.3125,830.0175 2.1454,0.12 351.888,4.9522 359.375,4.965 L 2360,2545 l 0,125 c 0,68.75 -0.3579,125 -0.7951,125 -0.4374,0 -12.6718,1.399 -27.1875,3.1089 -79.9673,9.4198 -199.8465,22.627 -283.8924,31.2765 -51.2414,5.2735 -84.8179,7.8528 -186.25,14.3082 -101.4574,6.4569 -96.9735,6.323 -205,6.1234 -57.0625,-0.105 -105.1562,-0.3503 -106.875,-0.5441 z"
       id="path3348"
       inkscape:connector-curvature="0" />
    <path
       style="fill:#de7785"
       d="m 1526.875,2847.9762 c -167.0732,-10.3788 -201.3209,-13.0066 -283.125,-21.723 -56.6018,-6.031 -131.2497,-14.1716 -166.875,-18.1983 -21.3125,-2.409 -46.0625,-5.1954 -55,-6.192 -8.9375,-0.9967 -25.8125,-2.9459 -37.5,-4.3318 -11.6875,-1.3859 -21.95313,-2.5223 -22.8125,-2.5255 -1.23955,0 -1.5625,-25.842 -1.5625,-125.0056 l 0,-125 19.0625,-0.044 c 15.79975,-0.036 349.642,-4.6953 350.625,-4.8931 0.1719,-0.035 0.3125,-373.6293 0.3125,-830.2107 l 0,-830.14784 -10.3125,0.80045 c -5.6719,0.44025 -37.5937,2.75649 -70.9375,5.1472 -126.0888,9.04046 -589.52779,42.4238 -614.1354,44.2386 -8.11822,0.59873 -15.07173,1.39989 -15.45221,1.78039 -0.38049,0.38049 -4.89995,84.3945 -10.04323,186.6979 -5.14328,102.3034 -9.4398,186.0999 -9.5478,186.2144 -0.19327,0.2051 -129.52386,14.8185 -363.32136,41.0526 -27.15625,3.0473 -87.0112,9.7802 -133.01101,14.9622 -45.999804,5.1818 -83.902226,9.1553 -84.227605,8.83 C 18.057329,1368.474 5.1313171,790.70398 6.0445311,789.83243 9.54332,786.4933 102.24612,736.92045 140,718.19969 245.25534,666.00745 445.23464,601.69345 625.625,562.02109 794.7347,524.82962 996.8412,494.73807 1163.75,481.8999 c 62.6247,-4.81692 119.1408,-9.25905 135,-10.61093 7.9063,-0.67393 24.7813,-1.80598 37.5,-2.51567 12.7188,-0.70968 26.7813,-1.58794 31.25,-1.9517 4.4688,-0.36375 28.375,-1.17021 53.125,-1.79211 29.3128,-0.73656 49.7945,-1.8373 58.7531,-3.15755 12.2938,-1.81173 30.7325,-1.96551 173.75,-1.44918 102.3079,0.36935 164.9547,1.07103 173.7469,1.94604 7.5625,0.75261 38.5,1.9037 68.75,2.55796 73.3996,1.5875 108.214,4.00419 209.375,14.53405 23.0313,2.39733 57.9063,6.00443 77.5,8.01578 209.1352,21.46824 204.8933,20.9745 275,32.00697 198.1629,31.18424 367.783,69.92778 508.799,116.21659 85.7764,28.15626 135.8781,47.93942 201.781,79.6752 41.5577,20.01229 143.0099,71.80846 145.8755,74.47645 0.9075,0.845 -12.0099,578.6193 -12.9576,579.567 -0.5026,0.5027 -55.7489,-5.553 -229.1229,-25.1152 -21.3125,-2.4047 -86,-9.6805 -143.75,-16.1682 -57.75,-6.4879 -128.0559,-14.3876 -156.2352,-17.5551 -28.1794,-3.1676 -51.3335,-5.8595 -51.4537,-5.9822 -0.12,-0.1225 -4.424,-83.9267 -9.5643,-186.231 -5.1403,-102.3044 -9.6677,-186.32968 -10.0609,-186.72285 -0.3931,-0.39317 -34.627,-3.15838 -76.0754,-6.1449 -41.4482,-2.98653 -110.798,-7.98461 -154.1105,-11.10686 -43.3125,-3.12225 -113.9062,-8.20917 -156.875,-11.30427 -212.1754,-15.28327 -254.4207,-18.33198 -285.625,-20.6127 -18.5625,-1.35673 -34.7344,-2.46875 -35.9375,-2.47115 C 1990.1064,880.00063 1990,920.35548 1990,1710 c 0,456.5 0.1406,830.0282 0.3125,830.0629 0.983,0.1977 334.8253,4.8566 350.625,4.8931 L 2360,2545 l 0,125 c 0,92.9107 -0.3667,125 -1.4285,125 -0.7856,0 -13.3012,1.4065 -27.8125,3.1255 -74.8347,8.8651 -214.324,24.203 -295.759,32.5209 -41.6177,4.2509 -117.0605,9.6745 -225.6806,16.2244 -48.4358,2.9208 -58.6523,3.1186 -153.4179,2.9714 -69.8815,-0.1088 -110.098,-0.6901 -129.0265,-1.866 z"
       id="path3346"
       inkscape:connector-curvature="0" />
    <path
       style="fill:#d75769"
       d="m 1530,2848.0134 c -134.2332,-8.351 -198.823,-12.865 -230.625,-16.1178 -59.2511,-6.0601 -151.9222,-15.9872 -204.375,-21.8932 -22.044,-2.482 -100.2087,-11.3655 -122.8125,-13.9578 L 960,2794.647 960,2669.8235 960,2545 l 11.5625,0.03 c 27.42265,0.072 324.4606,-3.9098 340.625,-4.5666 l 17.8125,-0.7238 0,-829.8701 0,-829.87 -2.8125,0.005 c -2.6181,0.004 -31.8957,2.09144 -263.4375,18.78005 -47.7813,3.44387 -117.8125,8.4907 -155.625,11.21515 -37.8125,2.72446 -96.59375,6.9652 -130.625,9.42387 -34.03125,2.45868 -83.364,6.00505 -109.62833,7.88083 -26.26433,1.87577 -48.156,3.81317 -48.64816,4.30532 -0.49215,0.49217 -5.08729,84.56568 -10.21141,186.82998 -5.12413,102.2644 -9.38871,186.0147 -9.47685,186.112 -0.0881,0.098 -20.97275,2.5065 -46.41025,5.3537 -25.4375,2.8474 -108.40625,12.1698 -184.375,20.7164 -75.96875,8.5467 -185.6303,20.8822 -243.69232,27.4122 -58.062034,6.5302 -105.778484,11.6618 -106.03656,11.4037 -0.258076,-0.258 -3.191774,-121.3153 -6.519329,-269.016 C 9.1742375,952.72105 6.1696954,822.48706 5.8250313,811.01291 L 5.1983694,790.15081 32.407955,775.13514 C 109.07708,732.82509 163.24367,705.70581 201.10847,690.67284 448.351,592.51328 727.13136,528.3991 1070.625,490.70061 c 43.5369,-4.77817 50.4468,-5.38907 135.625,-11.9905 44.3438,-3.4367 86.8125,-6.79904 94.375,-7.47186 28.0229,-2.49315 80.0248,-5.12721 123.125,-6.23668 28.951,-0.74523 48.2853,-1.8054 55.625,-3.0501 9.6428,-1.63525 32.1449,-1.90852 157.5,-1.91272 131.0568,-0.005 150.4704,0.2513 186.875,2.46125 22.3438,1.35638 54.2202,2.47376 70.8368,2.48308 50.2116,0.0281 111.254,4.30348 214.7882,15.04359 26.125,2.71008 61,6.31782 77.5,8.01719 202.4174,20.84756 199.7236,20.53929 258.0585,29.53235 242.0479,37.31471 440.6006,85.77173 607.3363,148.22099 37.9241,14.20416 56.2474,21.84251 90.2302,37.61395 27.015,12.53765 114.5264,56.24276 150.8404,75.33301 l 21.4654,11.28434 -0.6263,20.92325 c -0.3444,11.50779 -3.3575,141.77696 -6.6957,289.48705 -3.3384,147.7101 -6.2881,268.7821 -6.5549,269.0489 -0.2668,0.2668 -7.7568,-0.3525 -16.6445,-1.3761 -14.7366,-1.6973 -268.4345,-30.242 -478.6594,-53.8561 -46.75,-5.2514 -85.0761,-9.6228 -85.169,-9.7141 -0.093,-0.091 -4.3599,-83.8886 -9.482,-186.2156 -6.5276,-130.40303 -9.7453,-186.31636 -10.7579,-186.94226 -0.7947,-0.49115 -15.3716,-1.84203 -32.393,-3.00197 -17.0215,-1.15993 -65.8231,-4.63372 -108.4481,-7.71952 -42.625,-3.08579 -112.9375,-8.16236 -156.25,-11.28126 -43.3125,-3.11892 -109.6875,-7.90684 -147.5,-10.63985 -187.5442,-13.55531 -260.2495,-18.73969 -262.8125,-18.74029 L 1990,880 l 0,829.87 0,829.8701 17.8125,0.7238 c 16.1644,0.6569 313.2024,4.6391 340.625,4.5666 l 11.5625,-0.03 0,124.8259 0,124.8259 -6.5625,0.7906 c -25.2612,3.0434 -192.4842,21.7705 -235.3125,26.3522 -98.5996,10.5485 -141.2589,14.3548 -210.625,18.7932 -152.5508,9.7611 -142.9197,9.4067 -251.25,9.2455 -67.1033,-0.1 -108.1026,-0.6909 -126.25,-1.8199 z"
       id="path3344"
       inkscape:connector-curvature="0" />
    <path
       style="fill:#cf3247"
       d="m 1531.25,2848.0134 c -179.1861,-11.1478 -196.2141,-12.4659 -297.5,-23.0311 -49.1037,-5.1221 -201.7916,-22.0594 -253.11734,-28.0778 C 971.69938,2795.857 963.4025,2795 962.19516,2795 960.11628,2795 960,2788.3899 960,2670.2033 l 0,-124.7968 61.5625,-0.8019 c 33.8594,-0.441 114.1563,-1.405 178.4375,-2.1423 64.2813,-0.7373 119.8281,-1.6334 123.4375,-1.9914 l 6.5625,-0.6508 0,-829.9101 0,-829.91 -3.4677,0 c -1.9073,0 -42.5479,2.81871 -90.3125,6.2638 -91.8381,6.62396 -227.1384,16.37441 -355.5948,25.62606 -42.625,3.06993 -97.75,7.04803 -122.5,8.84023 -24.75,1.7922 -66.08194,4.75666 -91.84875,6.58769 l -46.84875,3.32915 -0.90303,3.11403 c -0.49666,1.71273 -4.94541,85.80154 -9.88612,186.86404 -4.94071,101.0625 -9.04616,183.8146 -9.12323,183.8936 -0.0771,0.079 -18.42137,2.1734 -40.76512,4.6543 -39.28173,4.3615 -156.74658,17.5517 -318.75,35.7926 -190.54083,21.4541 -220.646057,24.7857 -220.985764,24.4555 -0.19842,-0.193 -3.333371,-130.501 -6.966559,-289.5734 C 6.1446926,821.3963 5.6446195,790.49201 7.3474377,789.375 13.261734,785.49536 77.141747,750.80759 108.75,734.31194 c 53.26575,-27.79823 70.41674,-35.4296 132.5,-58.95624 191.43412,-72.54451 411.26051,-126.94024 657.5,-162.69744 109.2327,-15.86201 186.3751,-24.47207 292.5,-32.6467 36.0938,-2.78024 79.125,-6.16891 95.625,-7.53039 46.2681,-3.81776 92.1663,-6.29698 138.75,-7.49468 27.7881,-0.71447 46.9916,-1.79349 55.4756,-3.11712 11.6048,-1.81053 29.63,-1.96326 170.625,-1.44579 100.6655,0.36946 162.6195,1.07354 171.3994,1.94789 7.5625,0.75312 38.2188,1.89087 68.125,2.52835 74.7084,1.5925 110.4081,4.08253 216.875,15.12685 26.125,2.71008 61,6.31782 77.5,8.01719 178.5479,18.38918 200.3816,20.8307 241.5156,27.00713 186.2864,27.97158 352.5408,63.8039 492.8594,106.2245 75.6551,22.87176 155.599,51.90742 208.125,75.5911 26.0819,11.76017 124.232,60.41692 160.1174,79.3763 l 26.3672,13.93068 -0.4824,15.22572 c -0.2653,8.37413 -2.97,128.00696 -6.0102,265.85071 -3.0404,137.8437 -5.8905,261.45 -6.3338,274.6805 l -0.8058,24.0555 -4.5511,-0.6518 c -2.5033,-0.3585 -77.395,-8.8091 -166.4263,-18.7793 -89.0312,-9.9702 -178.75,-20.0463 -199.375,-22.3914 -20.625,-2.3451 -76.4531,-8.6336 -124.0625,-13.9745 l -86.5625,-9.7108 0.026,-3.1766 c 0.081,-9.859 -17.7213,-362.66628 -18.4838,-366.3016 l -0.9175,-4.375 -30,-2.09449 c -16.5,-1.15197 -65.4375,-4.65572 -108.75,-7.78612 -43.3125,-3.13039 -114.1875,-8.24374 -157.5,-11.36299 -43.3125,-3.11924 -109.6875,-7.90745 -147.5,-10.64046 C 2062.6113,884.69997 1996.56,880.00125 1993.4372,880.00065 L 1990,880 l 0,829.8878 0,829.8878 10.3125,0.6912 c 9.8286,0.6587 308.4561,4.6318 343.125,4.5651 L 2360,2545 l 0,125 c 0,106.7368 -0.2575,125 -1.7626,125 -0.9695,0 -28.6726,3.0647 -61.5625,6.8106 -88.8445,10.1184 -121.7271,13.7635 -180.4249,20.0007 -29.2187,3.1046 -58.4687,6.2252 -65,6.9345 -51.7781,5.6231 -111.8609,10.0557 -245.6996,18.1262 -48.1528,2.9037 -58.8835,3.1168 -149.6489,2.9706 -65.6549,-0.105 -106.6055,-0.7066 -124.6515,-1.8292 z"
       id="path3342"
       inkscape:connector-curvature="0" />
    <path
       style="fill:#c70e27"
       d="m 1521.875,2847.3539 c -200.8157,-12.435 -213.968,-13.6628 -544.0625,-50.784 L 960,2794.5668 l 0,-124.551 0,-124.5509 185,-2.3399 185,-2.3399 0,-830.3925 0,-830.3926 -4.1714,0 c -2.2942,0 -54.7473,3.64879 -116.5625,8.10841 -107.5993,7.76271 -176.8744,12.75734 -347.3911,25.04636 -42.625,3.07195 -112.49771,8.11884 -155.27269,11.2153 C 663.82732,927.46654 626.57243,930 623.81362,930 c -4.20095,0 -5.10784,0.457 -5.58128,2.8125 -0.31092,1.54687 -4.66084,85.8409 -9.6665,187.32 l -9.1012,184.5075 -18.79481,2.0055 c -10.33716,1.1031 -43.82608,4.8284 -74.41983,8.2785 -30.59375,3.45 -103.15625,11.6121 -161.25,18.1379 -128.97866,14.4882 -252.467845,28.3886 -294.375,33.1356 -17.1875,1.947 -31.388021,3.4141 -31.556714,3.2604 -0.168692,-0.1539 -3.107531,-124.2666 -6.530752,-275.8063 C 9.1143121,942.11198 6.1585833,811.86604 5.9692473,804.21619 L 5.625,790.30739 l 3.75,-2.15553 c 12.302855,-7.07177 78.045715,-42.5729 101.67095,-54.90227 35.94524,-18.75887 62.0399,-30.99895 89.309,-41.89171 C 379.84285,619.66064 586.1108,564.002 811.875,526.34736 c 118.44078,-19.75443 246.8064,-35.88641 348.75,-43.82812 26.8125,-2.08878 63.0938,-4.91121 80.625,-6.27208 17.5313,-1.36086 42,-3.32767 54.375,-4.3707 37.4945,-3.16018 86.4119,-5.73991 131.875,-6.9546 23.7188,-0.63372 45.9375,-1.68561 49.375,-2.33752 8.6568,-1.64175 324.2403,-1.65436 343.75,-0.0138 8.25,0.69376 39.4688,1.77737 69.375,2.40802 53.1758,1.12135 107.4359,4.09139 148.75,8.14212 11.3438,1.11222 77.4375,7.87886 146.875,15.03698 69.4375,7.15813 134.6875,13.8813 145,14.9404 59.1037,6.07 92.4801,10.72549 171.25,23.88677 211.9469,35.41318 386.9111,79.0789 535.625,133.67552 54.3479,19.9525 77.7503,29.90821 135.625,57.69684 30.6398,14.7117 97.0439,48.47668 133.75,68.00876 l 7.5,3.99091 -6.5694,289.41184 c -3.6131,159.1765 -6.7156,289.5581 -6.8945,289.7368 -0.1787,0.1788 -4.535,-0.1932 -9.6806,-0.8266 -5.1455,-0.6334 -54.6368,-6.2337 -109.9805,-12.445 -180.2864,-20.2339 -220.4562,-24.7486 -322.5,-36.2464 -55.3437,-6.2357 -109.0823,-12.2399 -119.4189,-13.3425 l -18.7937,-2.0047 -9.1071,-184.5077 c -5.0089,-101.4792 -9.3314,-185.66206 -9.6055,-187.073 -0.4731,-2.43489 -2.0738,-2.67271 -31.474,-4.67621 -17.0367,-1.16096 -66.132,-4.65321 -109.1008,-7.76056 -137.7767,-9.96352 -213.3995,-15.42244 -311.25,-22.468 -52.5937,-3.78693 -130.7778,-9.42097 -173.7421,-12.5201 C 2033.2934,882.53565 1996.309,880 1994.0704,880 l -4.0704,0 0,830.3926 0,830.3925 185,2.3399 185,2.3399 0,124.5212 0,124.5214 -40.9375,4.6608 c -246.2131,28.0313 -309.0379,34.3913 -397.1875,40.2095 -159.8166,10.5483 -161.8716,10.6288 -266.875,10.4557 -77.5046,-0.1277 -102.731,-0.5976 -133.125,-2.4796 z"
       id="path3340"
       inkscape:connector-curvature="0" />
  </g>
</svg>
